<mxfile host="app.diagrams.net" agent="Mozilla/5.0 (Windows NT 10.0; Win64; x64) AppleWebKit/537.36 (KHTML, like Gecko) Chrome/128.0.0.0 Safari/537.36 Edg/128.0.0.0" version="24.7.12">
  <diagram name="Page-1" id="c7488fd3-1785-93aa-aadb-54a6760d102a">
    <mxGraphModel dx="979" dy="524" grid="1" gridSize="10" guides="1" tooltips="1" connect="1" arrows="1" fold="1" page="1" pageScale="1" pageWidth="1100" pageHeight="850" background="none" math="0" shadow="0">
      <root>
        <mxCell id="0" />
        <mxCell id="1" parent="0" />
        <mxCell id="2b4e8129b02d487f-1" value="Gestión de Ventas" style="swimlane;html=1;childLayout=stackLayout;horizontal=1;startSize=20;horizontalStack=0;rounded=0;shadow=0;labelBackgroundColor=none;strokeWidth=1;fontFamily=Verdana;fontSize=8;align=center;" parent="1" vertex="1">
          <mxGeometry x="120" y="115" width="680" height="310" as="geometry" />
        </mxCell>
        <mxCell id="2b4e8129b02d487f-2" value="ÁREA DE VENTAS" style="swimlane;html=1;startSize=20;horizontal=0;" parent="2b4e8129b02d487f-1" vertex="1">
          <mxGeometry y="20" width="680" height="150" as="geometry" />
        </mxCell>
        <mxCell id="2b4e8129b02d487f-18" style="edgeStyle=orthogonalEdgeStyle;rounded=0;html=1;labelBackgroundColor=none;startArrow=none;startFill=0;startSize=5;endArrow=classicThin;endFill=1;endSize=5;jettySize=auto;orthogonalLoop=1;strokeWidth=1;fontFamily=Verdana;fontSize=8;entryX=0;entryY=0.75;entryDx=0;entryDy=0;" parent="2b4e8129b02d487f-2" source="2b4e8129b02d487f-5" target="tjaa7jT4ct7i-GQdCvEM-2" edge="1">
          <mxGeometry relative="1" as="geometry">
            <mxPoint x="119.99999999999977" y="75.05882352941182" as="targetPoint" />
          </mxGeometry>
        </mxCell>
        <mxCell id="2b4e8129b02d487f-5" value="&lt;font style=&quot;font-size: 6px;&quot; face=&quot;Verdana&quot;&gt;INICIO&lt;/font&gt;" style="ellipse;whiteSpace=wrap;html=1;rounded=0;shadow=0;labelBackgroundColor=none;strokeWidth=1;fontFamily=Verdana;fontSize=8;align=center;" parent="2b4e8129b02d487f-2" vertex="1">
          <mxGeometry x="40" y="55" width="30" height="30" as="geometry" />
        </mxCell>
        <mxCell id="2b4e8129b02d487f-11" value="&lt;font style=&quot;font-size: 6px;&quot;&gt;FIN&lt;/font&gt;" style="ellipse;whiteSpace=wrap;html=1;rounded=0;shadow=0;labelBackgroundColor=none;strokeWidth=2;fontFamily=Verdana;fontSize=8;align=center;" parent="2b4e8129b02d487f-2" vertex="1">
          <mxGeometry x="630" y="40" width="30" height="30" as="geometry" />
        </mxCell>
        <mxCell id="tjaa7jT4ct7i-GQdCvEM-2" value="&lt;div&gt;&lt;br&gt;&lt;/div&gt;Recepción de mercancia" style="shape=manualInput;whiteSpace=wrap;html=1;" vertex="1" parent="2b4e8129b02d487f-2">
          <mxGeometry x="110" y="25" width="140" height="60" as="geometry" />
        </mxCell>
        <mxCell id="tjaa7jT4ct7i-GQdCvEM-12" style="edgeStyle=orthogonalEdgeStyle;rounded=0;orthogonalLoop=1;jettySize=auto;html=1;" edge="1" parent="2b4e8129b02d487f-2" source="tjaa7jT4ct7i-GQdCvEM-6">
          <mxGeometry relative="1" as="geometry">
            <mxPoint x="180" y="110" as="targetPoint" />
          </mxGeometry>
        </mxCell>
        <mxCell id="tjaa7jT4ct7i-GQdCvEM-6" value="Verificación de stock" style="shape=document;whiteSpace=wrap;html=1;boundedLbl=1;" vertex="1" parent="2b4e8129b02d487f-2">
          <mxGeometry x="300" y="90" width="150" height="40" as="geometry" />
        </mxCell>
        <mxCell id="tjaa7jT4ct7i-GQdCvEM-14" style="edgeStyle=orthogonalEdgeStyle;rounded=0;orthogonalLoop=1;jettySize=auto;html=1;" edge="1" parent="2b4e8129b02d487f-2" source="tjaa7jT4ct7i-GQdCvEM-13" target="2b4e8129b02d487f-11">
          <mxGeometry relative="1" as="geometry" />
        </mxCell>
        <mxCell id="tjaa7jT4ct7i-GQdCvEM-13" value="Verificación de stock" style="shape=document;whiteSpace=wrap;html=1;boundedLbl=1;" vertex="1" parent="2b4e8129b02d487f-2">
          <mxGeometry x="430" y="35" width="150" height="40" as="geometry" />
        </mxCell>
        <mxCell id="2b4e8129b02d487f-27" value="SI" style="edgeStyle=orthogonalEdgeStyle;rounded=0;html=1;labelBackgroundColor=none;startArrow=none;startFill=0;startSize=5;endArrow=classicThin;endFill=1;endSize=5;jettySize=auto;orthogonalLoop=1;strokeWidth=1;fontFamily=Verdana;fontSize=8;entryX=0.575;entryY=0.701;entryDx=0;entryDy=0;entryPerimeter=0;" parent="2b4e8129b02d487f-1" source="2b4e8129b02d487f-13" target="tjaa7jT4ct7i-GQdCvEM-13" edge="1">
          <mxGeometry x="-0.9499" y="-10" relative="1" as="geometry">
            <mxPoint as="offset" />
            <mxPoint x="550" y="120" as="targetPoint" />
            <Array as="points">
              <mxPoint x="516" y="250" />
            </Array>
          </mxGeometry>
        </mxCell>
        <mxCell id="tjaa7jT4ct7i-GQdCvEM-5" style="edgeStyle=orthogonalEdgeStyle;rounded=0;orthogonalLoop=1;jettySize=auto;html=1;" edge="1" parent="2b4e8129b02d487f-1" source="tjaa7jT4ct7i-GQdCvEM-2" target="tjaa7jT4ct7i-GQdCvEM-9">
          <mxGeometry relative="1" as="geometry">
            <mxPoint x="181" y="230" as="targetPoint" />
          </mxGeometry>
        </mxCell>
        <mxCell id="2b4e8129b02d487f-3" value="ÁREA FINANCIERA" style="swimlane;html=1;startSize=20;horizontal=0;" parent="2b4e8129b02d487f-1" vertex="1">
          <mxGeometry y="170" width="680" height="140" as="geometry" />
        </mxCell>
        <mxCell id="2b4e8129b02d487f-26" style="edgeStyle=orthogonalEdgeStyle;rounded=0;html=1;labelBackgroundColor=none;startArrow=none;startFill=0;startSize=5;endArrow=classicThin;endFill=1;endSize=5;jettySize=auto;orthogonalLoop=1;strokeWidth=1;fontFamily=Verdana;fontSize=8" parent="2b4e8129b02d487f-3" source="tjaa7jT4ct7i-GQdCvEM-9" target="2b4e8129b02d487f-13" edge="1">
          <mxGeometry relative="1" as="geometry">
            <mxPoint x="229.98039215686254" y="77.05882352941171" as="sourcePoint" />
          </mxGeometry>
        </mxCell>
        <mxCell id="2b4e8129b02d487f-13" value="" style="strokeWidth=1;html=1;shape=mxgraph.flowchart.decision;whiteSpace=wrap;rounded=1;shadow=0;labelBackgroundColor=none;fontFamily=Verdana;fontSize=8;align=center;" parent="2b4e8129b02d487f-3" vertex="1">
          <mxGeometry x="355" y="64.99999999999991" width="30" height="30" as="geometry" />
        </mxCell>
        <mxCell id="tjaa7jT4ct7i-GQdCvEM-9" value="Mantener control de existencia de producto" style="rounded=1;whiteSpace=wrap;html=1;" vertex="1" parent="2b4e8129b02d487f-3">
          <mxGeometry x="120" y="50" width="120" height="60" as="geometry" />
        </mxCell>
        <mxCell id="tjaa7jT4ct7i-GQdCvEM-10" style="edgeStyle=orthogonalEdgeStyle;rounded=0;orthogonalLoop=1;jettySize=auto;html=1;entryX=0.467;entryY=1;entryDx=0;entryDy=0;entryPerimeter=0;" edge="1" parent="2b4e8129b02d487f-1" source="2b4e8129b02d487f-13" target="tjaa7jT4ct7i-GQdCvEM-6">
          <mxGeometry relative="1" as="geometry" />
        </mxCell>
        <mxCell id="tjaa7jT4ct7i-GQdCvEM-11" value="&lt;font style=&quot;font-size: 8px;&quot; face=&quot;Verdana&quot;&gt;NO&lt;/font&gt;" style="edgeLabel;html=1;align=center;verticalAlign=middle;resizable=0;points=[];" vertex="1" connectable="0" parent="tjaa7jT4ct7i-GQdCvEM-10">
          <mxGeometry x="-0.4706" y="1" relative="1" as="geometry">
            <mxPoint x="-14" y="7" as="offset" />
          </mxGeometry>
        </mxCell>
      </root>
    </mxGraphModel>
  </diagram>
</mxfile>
